<svg xmlns="http://www.w3.org/2000/svg" version="1.1" xmlns:xlink="http://www.w3.org/1999/xlink" xmlns:svgjs="http://svgjs.dev/svgjs" width="100%" height="100%" viewBox="0 0 1000 600"><rect width="1000" height="600" x="0" y="0" fill="#f7f7f7"/><g><rect width="333.3333333333333" height="333.3333333333333" rx="13.333333333333334" ry="13.333333333333334" y="109.02705915067855" fill="#006838" transform="matrix(1.4400118688478254,0,0,1.4400118688478252,0,-97.0022418071114)" x="86.80484008789061"/><path d="M245.24978814386327 276.57462988418933L305.5526950800254 350.69373333519735L282.18570500122553 350.69373333519735L222.99551187833958 276.57462988418933L280.1766383939213 200.69372956216063L302.43091465944497 200.69372956216063L245.24978814386327 276.57462988418933ZM219.44100941926285 200.69372956216063L219.44100941926285 350.69373333519735L201.39031867056033 350.69373333519735L201.39031867056033 200.69372956216063L219.44100941926285 200.69372956216063Z " fill="white" transform="matrix(1.4400118688478254,0,0,1.4400118688478252,0,-97.0022418071114)"/><path d="M547.3309763457673 276.57462988418933L607.6338832819297 350.69373333519735L584.2668932031297 350.69373333519735L525.0767000802437 276.57462988418933L582.2578265958255 200.69372956216063L604.5121028613491 200.69372956216063L547.3309763457673 276.57462988418933ZM521.5221976211672 200.69372956216063L521.5221976211672 350.69373333519735L503.4715068724645 350.69373333519735L503.4715068724645 200.69372956216063L521.5221976211672 200.69372956216063Z " fill="#006838" transform="matrix(1.4400118688478254,0,0,1.4400118688478252,0,-97.0022418071114)"/></g></svg>